<svg xmlns="http://www.w3.org/2000/svg" width="1544" height="500" viewBox="0 0 1544 500" role="img" aria-labelledby="title desc">
  <title id="title">DebugBundle WordPress banner</title>
  <desc id="desc">A dark editorial banner announcing DebugBundle for WordPress with server-side relay messaging.</desc>
  <defs>
    <linearGradient id="bg" x1="86" y1="36" x2="1420" y2="480" gradientUnits="userSpaceOnUse">
      <stop offset="0" stop-color="#08111d"/>
      <stop offset="0.55" stop-color="#102233"/>
      <stop offset="1" stop-color="#173855"/>
    </linearGradient>
    <linearGradient id="accent" x1="176" y1="52" x2="456" y2="340" gradientUnits="userSpaceOnUse">
      <stop offset="0" stop-color="#f59e0b"/>
      <stop offset="1" stop-color="#fb7185"/>
    </linearGradient>
  </defs>
  <rect width="1544" height="500" fill="url(#bg)"/>
  <circle cx="224" cy="118" r="84" fill="#f59e0b" opacity="0.14"/>
  <circle cx="482" cy="406" r="62" fill="#22c55e" opacity="0.12"/>
  <rect x="94" y="92" width="326" height="326" rx="72" fill="none" stroke="#f59e0b" stroke-width="24"/>
  <rect x="166" y="164" width="326" height="326" rx="72" fill="none" stroke="#fbbf24" stroke-width="24" opacity="0.9"/>
  <rect x="238" y="236" width="340" height="212" rx="48" fill="#f8fafc"/>
  <rect x="304" y="284" width="168" height="22" rx="11" fill="#102033"/>
  <rect x="304" y="330" width="220" height="22" rx="11" fill="#102033" opacity="0.78"/>
  <rect x="304" y="376" width="188" height="22" rx="11" fill="#102033" opacity="0.6"/>
  <circle cx="524" cy="396" r="34" fill="url(#accent)"/>
  <path d="M506 396h36" stroke="#08111d" stroke-width="10" stroke-linecap="round"/>
  <path d="M524 378v36" stroke="#08111d" stroke-width="10" stroke-linecap="round"/>

  <rect x="700" y="100" width="196" height="42" rx="21" fill="#102c42"/>
  <text x="734" y="128" font-family="Avenir Next, Helvetica, Arial, sans-serif" font-size="24" font-weight="700" fill="#f8fafc">WORDPRESS PLUGIN</text>

  <text x="700" y="222" font-family="Avenir Next, Helvetica, Arial, sans-serif" font-size="70" font-weight="750" fill="#f8fafc">DebugBundle</text>
  <text x="700" y="302" font-family="Avenir Next, Helvetica, Arial, sans-serif" font-size="70" font-weight="750" fill="#f8fafc">for WordPress</text>

  <text x="700" y="362" font-family="Avenir Next, Helvetica, Arial, sans-serif" font-size="30" fill="#dbe7f1">Backend plus browser incident capture with a same-origin relay.</text>

  <rect x="700" y="392" width="256" height="44" rx="22" fill="#f59e0b"/>
  <text x="734" y="421" font-family="Avenir Next, Helvetica, Arial, sans-serif" font-size="24" font-weight="700" fill="#08111d">PROJECT TOKEN STAYS SERVER-SIDE</text>

  <rect x="978" y="392" width="124" height="44" rx="22" fill="#173855" stroke="#35597b"/>
  <text x="1014" y="421" font-family="Avenir Next, Helvetica, Arial, sans-serif" font-size="24" font-weight="700" fill="#f8fafc">WP 6.5+</text>

  <rect x="1120" y="392" width="124" height="44" rx="22" fill="#173855" stroke="#35597b"/>
  <text x="1158" y="421" font-family="Avenir Next, Helvetica, Arial, sans-serif" font-size="24" font-weight="700" fill="#f8fafc">PHP 8.2+</text>
</svg>