<svg xmlns="http://www.w3.org/2000/svg" width="256" height="256" viewBox="0 0 256 256" role="img" aria-labelledby="title desc">
  <title id="title">DebugBundle WordPress plugin icon</title>
  <desc id="desc">Layered bundle panels over a dark background with a warm accent.</desc>
  <defs>
    <linearGradient id="bg" x1="24" y1="20" x2="220" y2="236" gradientUnits="userSpaceOnUse">
      <stop offset="0" stop-color="#0b1423"/>
      <stop offset="1" stop-color="#18324a"/>
    </linearGradient>
    <linearGradient id="accent" x1="60" y1="52" x2="188" y2="184" gradientUnits="userSpaceOnUse">
      <stop offset="0" stop-color="#f59e0b"/>
      <stop offset="1" stop-color="#fb7185"/>
    </linearGradient>
  </defs>
  <rect width="256" height="256" rx="52" fill="url(#bg)"/>
  <circle cx="208" cy="50" r="28" fill="#f59e0b" opacity="0.16"/>
  <circle cx="54" cy="206" r="20" fill="#22c55e" opacity="0.16"/>
  <rect x="48" y="56" width="106" height="106" rx="24" fill="none" stroke="#f59e0b" stroke-width="10"/>
  <rect x="72" y="80" width="106" height="106" rx="24" fill="none" stroke="#fbbf24" stroke-width="10" opacity="0.92"/>
  <rect x="96" y="104" width="112" height="112" rx="26" fill="#f8fafc"/>
  <rect x="118" y="132" width="50" height="10" rx="5" fill="#102033"/>
  <rect x="118" y="152" width="70" height="10" rx="5" fill="#102033" opacity="0.82"/>
  <rect x="118" y="172" width="60" height="10" rx="5" fill="#102033" opacity="0.64"/>
  <circle cx="186" cy="194" r="16" fill="url(#accent)"/>
  <path d="M178 194h16" stroke="#0b1423" stroke-width="5" stroke-linecap="round"/>
  <path d="M186 186v16" stroke="#0b1423" stroke-width="5" stroke-linecap="round"/>
  <path d="M42 214c22-18 42-26 72-28" fill="none" stroke="#f8fafc" stroke-opacity="0.22" stroke-width="6" stroke-linecap="round"/>
</svg>